# xmcd CD database file
#
# Track frame offsets:
#	182
#	14932
#	29832
#	45922
#	58565
#	68852
#	80020
#	99732
#	108065
#	126870
#	137017
#
# Disc length: 2095 seconds
#
# Revision: 1
# Processed by: cddbd v1.5.1PL2 Copyright (c) Steve Scherf et al.
# Submitted via: CDex 1.51
#
DISCID=99082d0b
DTITLE=Muleskinner - A Potpourri Of Bluegrass Jam
DYEAR=1974
DGENRE=Bluegrass
TTITLE0=Muleskinner Blues
TTITLE1=Blue And Lonesome
TTITLE2=Footprints In The Snow
TTITLE3=Dark Hollow
TTITLE4=Whitehouse Blues
TTITLE5=Opus 57 In G Minor
TTITLE6=Runaways Of The Moon
TTITLE7=Roanoke
TTITLE8=Rain And Snow
TTITLE9=Soldier's Joy
TTITLE10=Blue Mule
EXTD=YEAR: 1974
EXTT0=
EXTT1=
EXTT2=
EXTT3=
EXTT4=
EXTT5=
EXTT6=
EXTT7=
EXTT8=
EXTT9=
EXTT10=
PLAYORDER=
